<svg width="25" height="24" viewBox="0 0 25 24" fill="none" xmlns="http://www.w3.org/2000/svg">
<rect x="0.5" y="0.5" width="23.75" height="23" rx="7.5" fill="#FCA311"/>
<rect x="0.5" y="0.5" width="23.75" height="23" rx="7.5" stroke="#FCA311"/>
<path d="M16.5898 7.84507C16.6924 7.9857 16.75 8.17632 16.75 8.37507C16.75 8.57382 16.6924 8.76445 16.5898 8.90507L11.2948 16.1551C11.1921 16.2955 11.0529 16.3744 10.9077 16.3744C10.7625 16.3744 10.6233 16.2955 10.5206 16.1551L8.147 12.9051C8.05029 12.7628 7.99763 12.5748 8.00008 12.3804C8.00253 12.1861 8.05991 12.0007 8.16014 11.8631C8.26064 11.7258 8.39608 11.6473 8.538 11.6439C8.67992 11.6406 8.81726 11.7127 8.92116 11.8451L10.9077 14.5651L15.8156 7.84507C15.9183 7.70462 16.0576 7.62573 16.2027 7.62573C16.3479 7.62573 16.4871 7.70462 16.5898 7.84507Z" fill="white"/>
</svg>
