<svg width="28" height="24" viewBox="0 0 28 24" fill="none" xmlns="http://www.w3.org/2000/svg">
<rect x="0.5" y="0.5" width="27" height="23" rx="7.5" fill="#C71111"/>
<rect x="0.5" y="0.5" width="27" height="23" rx="7.5" stroke="#C71111"/>
<path d="M19.5 7H16.5V6.25C16.5 5.91848 16.3683 5.60054 16.1339 5.36612C15.8995 5.1317 15.5815 5 15.25 5H12.75C12.4185 5 12.1005 5.1317 11.8661 5.36612C11.6317 5.60054 11.5 5.91848 11.5 6.25V7H8.5C8.36739 7 8.24021 7.05268 8.14645 7.14645C8.05268 7.24021 8 7.36739 8 7.5C8 7.63261 8.05268 7.75979 8.14645 7.85355C8.24021 7.94732 8.36739 8 8.5 8H9.03125L9.625 17.5288C9.66937 18.3678 10.3125 19 11.125 19H16.875C17.6916 19 18.3219 18.3819 18.375 17.5312L18.9688 8H19.5C19.6326 8 19.7598 7.94732 19.8536 7.85355C19.9473 7.75979 20 7.63261 20 7.5C20 7.36739 19.9473 7.24021 19.8536 7.14645C19.7598 7.05268 19.6326 7 19.5 7ZM12.0178 17H12C11.8704 17.0001 11.7459 16.9499 11.6526 16.8599C11.5593 16.77 11.5046 16.6473 11.5 16.5178L11.25 9.51781C11.2453 9.3852 11.2934 9.25615 11.3839 9.15904C11.4743 9.06193 11.5996 9.00472 11.7322 9C11.8648 8.99528 11.9938 9.04342 12.091 9.13385C12.1881 9.22428 12.2453 9.34958 12.25 9.48219L12.5 16.4822C12.5024 16.5479 12.4918 16.6134 12.4688 16.6749C12.4459 16.7365 12.411 16.793 12.3662 16.841C12.3215 16.8891 12.2676 16.9279 12.2079 16.9552C12.1481 16.9825 12.0835 16.9977 12.0178 17ZM14.5 16.5C14.5 16.6326 14.4473 16.7598 14.3536 16.8536C14.2598 16.9473 14.1326 17 14 17C13.8674 17 13.7402 16.9473 13.6464 16.8536C13.5527 16.7598 13.5 16.6326 13.5 16.5V9.5C13.5 9.36739 13.5527 9.24021 13.6464 9.14645C13.7402 9.05268 13.8674 9 14 9C14.1326 9 14.2598 9.05268 14.3536 9.14645C14.4473 9.24021 14.5 9.36739 14.5 9.5V16.5ZM15.5 7H12.5V6.25C12.4996 6.21706 12.5058 6.18439 12.5183 6.15388C12.5307 6.12338 12.5491 6.09567 12.5724 6.07238C12.5957 6.04909 12.6234 6.03069 12.6539 6.01826C12.6844 6.00583 12.7171 5.99962 12.75 6H15.25C15.2829 5.99962 15.3156 6.00583 15.3461 6.01826C15.3766 6.03069 15.4043 6.04909 15.4276 6.07238C15.4509 6.09567 15.4693 6.12338 15.4817 6.15388C15.4942 6.18439 15.5004 6.21706 15.5 6.25V7ZM16.5 16.5178C16.4954 16.6473 16.4407 16.77 16.3474 16.8599C16.2541 16.9499 16.1296 17.0001 16 17H15.9819C15.9162 16.9977 15.8517 16.9824 15.7919 16.9551C15.7322 16.9278 15.6784 16.889 15.6336 16.8409C15.5889 16.7929 15.5541 16.7364 15.5311 16.6749C15.5082 16.6133 15.4976 16.5478 15.5 16.4822L15.75 9.48219C15.7523 9.41653 15.7676 9.35197 15.7949 9.2922C15.8222 9.23243 15.861 9.17863 15.909 9.13385C15.9571 9.08908 16.0136 9.05421 16.0751 9.03124C16.1367 9.00828 16.2022 8.99766 16.2678 9C16.3335 9.00234 16.398 9.01759 16.4578 9.04488C16.5176 9.07217 16.5714 9.11096 16.6161 9.15904C16.6609 9.20713 16.6958 9.26356 16.7188 9.32511C16.7417 9.38667 16.7523 9.45215 16.75 9.51781L16.5 16.5178Z" fill="white"/>
</svg>
