<svg width="25" height="24" viewBox="0 0 25 24" fill="none" xmlns="http://www.w3.org/2000/svg">
<rect x="0.5" y="0.5" width="23.75" height="23" rx="7.5" stroke="#FCA311"/>
<path d="M16.5898 7.84495C16.6924 7.98558 16.75 8.1762 16.75 8.37495C16.75 8.5737 16.6924 8.76433 16.5898 8.90495L11.2948 16.155C11.1921 16.2954 11.0529 16.3743 10.9077 16.3743C10.7625 16.3743 10.6233 16.2954 10.5206 16.155L8.147 12.905C8.05029 12.7627 7.99763 12.5746 8.00008 12.3803C8.00253 12.186 8.05991 12.0006 8.16014 11.863C8.26064 11.7257 8.39608 11.6472 8.538 11.6438C8.67992 11.6404 8.81726 11.7125 8.92116 11.845L10.9077 14.5649L15.8156 7.84495C15.9183 7.7045 16.0576 7.62561 16.2027 7.62561C16.3479 7.62561 16.4871 7.7045 16.5898 7.84495Z" fill="white"/>
</svg>
